<svg width="597" height="651" viewBox="0 0 597 651" fill="none" xmlns="http://www.w3.org/2000/svg">
<path d="M473.516 181.811C470.735 181.491 468.94 182.63 468.624 184.733C467.761 190.198 467.092 195.648 468.834 201.115C469.468 203.101 470.084 205.308 468.078 207.126C467.673 206.613 467.25 206.098 466.6 205.279C466.019 207.066 465.525 208.537 464.962 210.285C464.347 209.265 463.976 208.645 463.484 207.849C462.957 208.768 462.55 209.469 462.006 210.41C461.619 209.63 461.372 209.128 460.897 208.148C460.316 209.626 459.911 210.655 459.63 211.335C463.097 212.745 466.283 214.047 469.468 215.346C470.471 215.761 471.475 216.255 472.531 216.569C475.118 217.341 476.843 215.837 476.139 213.227C475.805 211.917 474.907 210.708 474.097 209.579C470.946 205.232 469.099 200.643 470.929 195.211C471.141 194.621 471.334 193.944 471.245 193.358C470.578 189.325 471.352 185.564 473.516 181.811ZM64.0391 117.891L70.7947 110.152C73.3179 107.262 75.6905 105.685 77.9237 105.419C79.7485 105.206 81.5368 105.865 83.2908 107.396C84.7696 108.687 85.5225 110.257 85.5643 112.107C85.5829 113.706 85.0663 115.322 84.0093 116.949L84.2732 117.179C86.2456 115.421 88.2276 114.526 90.2239 114.49C91.9553 114.457 93.558 115.084 95.0212 116.361C97.2135 118.275 98.1871 120.53 97.9463 123.14C97.7293 125.426 96.5941 127.75 94.5331 130.111L87.3987 138.283L64.0391 117.891ZM68.6099 117.134L76.3428 123.885L80.0184 119.675C81.7619 117.678 82.6743 115.812 82.7413 114.093C82.7861 112.624 82.224 111.38 81.062 110.365C79.6777 109.157 78.3188 108.752 76.9741 109.141C75.7308 109.509 74.3048 110.61 72.7007 112.448L68.6099 117.134ZM78.5619 125.822L87.5321 133.653L92.0143 128.518C95.2427 124.82 95.3731 121.684 92.4145 119.102C90.8984 117.778 89.2116 117.377 87.354 117.905C85.6955 118.366 84.0496 119.535 82.4127 121.411L78.5619 125.822ZM103.628 76.9448L105.75 79.1646L94.2848 90.1252L101.146 97.3028L109.818 89.0116L111.941 91.2313L103.268 99.5227L111.467 108.099L123.14 96.9397L125.263 99.1603L110.948 112.844L89.5216 90.4293L103.628 76.9448ZM136.364 60.7039L134.023 63.7123C131.042 61.3605 128.202 61.1488 125.491 63.0854C123.819 64.2788 122.827 65.6161 122.51 67.1017C122.233 68.3928 122.507 69.6197 123.334 70.7781C124.337 72.1817 125.53 72.9241 126.907 73.0173C128.13 73.1008 129.834 72.7109 132.028 71.8507L133.346 71.3908C136.98 69.976 139.8 69.5213 141.822 70.0335C143.411 70.4501 144.841 71.5481 146.113 73.3281C147.784 75.668 148.24 78.0913 147.466 80.5914C146.753 82.85 145.12 84.8955 142.558 86.7253C140.048 88.5181 137.567 89.3776 135.107 89.2985C132.935 89.2381 130.881 88.4391 128.925 86.9057L131.133 83.7705C132.777 85.1801 134.516 85.8779 136.363 85.8689C137.899 85.848 139.361 85.3381 140.754 84.3438C142.768 82.9052 143.94 81.3607 144.264 79.7156C144.531 78.388 144.209 77.0932 143.312 75.8372C142.285 74.3993 141.106 73.63 139.767 73.5264C138.455 73.4041 136.54 73.8239 134.023 74.7764L132.807 75.1976C129.415 76.4567 126.742 76.8405 124.794 76.3448C123.183 75.9356 121.739 74.8309 120.455 73.0329C119.032 71.042 118.641 68.8645 119.288 66.5248C119.893 64.3079 121.358 62.3661 123.686 60.7031C127.989 57.6291 132.218 57.6253 136.364 60.7039ZM163.465 36.1903L165.024 38.8856L156.61 43.7517L170.576 67.8985L167.371 69.7524L153.406 45.6056L145.064 50.4291L143.506 47.7337L163.465 36.1903ZM216.388 21.7352L213.286 23.9513C211.099 20.8475 208.438 19.836 205.288 20.9191C203.345 21.5876 202.012 22.5865 201.285 23.92C200.653 25.0784 200.565 26.3329 201.028 27.6784C201.59 29.3101 202.521 30.3612 203.815 30.8435C204.963 31.2713 206.708 31.3831 209.056 31.1841L210.45 31.1192C214.337 30.798 217.169 31.1661 218.961 32.2329C220.367 33.0849 221.424 34.5452 222.136 36.6136C223.071 39.3321 222.817 41.7853 221.364 43.9612C220.036 45.9231 217.889 47.4184 214.912 48.4425C211.994 49.4459 209.371 49.5621 207.036 48.7863C204.971 48.1093 203.23 46.758 201.792 44.7312L204.801 42.354C205.976 44.175 207.443 45.3387 209.216 45.856C210.695 46.2741 212.242 46.2019 213.86 45.6451C216.201 44.84 217.764 43.6936 218.544 42.2094C219.178 41.013 219.238 39.6794 218.736 38.2208C218.162 36.5496 217.251 35.4761 215.996 34.9953C214.774 34.5041 212.819 34.3611 210.135 34.5571L208.849 34.6137C205.238 34.8545 202.568 34.4609 200.841 33.4308C199.414 32.5794 198.344 31.1088 197.626 29.0201C196.829 26.7064 197.074 24.5074 198.361 22.4486C199.573 20.4964 201.531 19.0525 204.236 18.1215C209.236 16.4011 213.29 17.6027 216.388 21.7352ZM249.349 6.4812L250.04 9.47318L234.585 13.04L236.817 22.7154L248.508 20.0179L249.198 23.0099L237.508 25.7076L240.176 37.2696L255.912 33.638L256.602 36.6308L237.307 41.0832L230.334 10.8693L249.349 6.4812ZM288.426 9.08866L284.943 10.5116C283.346 6.13079 280.581 4.18532 276.642 4.67572C273.748 5.03585 271.627 6.57065 270.296 9.27425C269.07 11.7437 268.699 14.8991 269.177 18.7476C269.722 23.1247 271.113 26.3501 273.344 28.4328C275.198 30.1599 277.37 30.8717 279.861 30.5616C284.03 30.0428 286.347 27.4235 286.812 22.7013L290.426 23.4534C289.471 29.4726 286.067 32.8427 280.194 33.5731C276.13 34.0785 272.719 32.8993 269.96 30.0406C267.457 27.4689 265.923 23.8791 265.35 19.2724C264.691 13.9771 265.557 9.69385 267.957 6.42745C269.962 3.69705 272.719 2.11078 276.227 1.67478C279.282 1.29451 281.917 1.86412 284.14 3.37506C286.026 4.67426 287.457 6.57359 288.426 9.08866ZM315.364 0.00571223C319.458 0.120512 322.624 1.794 324.862 5.02093C326.892 7.92573 327.845 11.7117 327.715 16.3809C327.566 21.715 326.083 25.8193 323.281 28.6877C320.92 31.0841 317.983 32.2358 314.465 32.1374C310.399 32.0241 307.24 30.3432 304.988 27.1022C302.959 24.1832 302.012 20.404 302.142 15.7631C302.292 10.4155 303.773 6.31119 306.596 3.45772C308.95 1.06132 311.873 -0.0918878 315.364 0.00571223ZM315.279 3.03359C312.391 2.95319 310.113 4.14506 308.438 6.60266C306.923 8.84706 306.114 11.9181 306.005 15.8226C305.881 20.2734 306.725 23.6785 308.532 26.0437C310.042 28.0153 312.047 29.0396 314.55 29.1096C317.465 29.1908 319.758 27.9929 321.412 25.5204C322.928 23.2901 323.742 20.2265 323.851 16.3221C323.977 11.8421 323.139 8.43119 321.339 6.07932C319.836 4.12265 317.816 3.10519 315.279 3.03359ZM366.688 5.38012L362.86 36.1515L358.233 35.5753L350.911 15.7556C350.793 15.4507 349.704 12.2768 347.643 6.23372L347.01 6.15466C346.922 6.86426 346.737 8.62866 346.451 11.4485C346.266 13.2763 346.096 14.8171 345.94 16.0701L344.191 30.1285C347.551 31.0104 349.997 33.0632 351.157 36.6651C351.544 37.8407 351.702 39.1235 351.738 40.3645C351.79 42.0261 351.826 43.4341 353.181 44.8549C353.334 45.0152 353.442 45.2284 353.517 45.4773C411.658 54.786 463.69 82.3953 503.511 122.217C524.143 142.848 541.494 166.759 554.723 193.098C550.859 190.61 546.185 189.46 541.091 189.74C528.983 167.587 513.786 147.363 496.075 129.653C457.654 91.2313 407.41 64.6344 351.271 55.7729C348.408 58.8433 349.515 62.6449 349.801 66.2161C350.012 68.872 350.646 71.5033 351.21 74.1183C351.756 76.6645 353.34 78.0459 355.944 78.7599C363.935 80.9492 371.819 83.4821 379.792 85.6803C386.974 87.6609 391.339 92.0856 393.469 99.2647C397.059 111.346 401.036 123.315 404.839 135.329C405.278 136.691 405.86 137.998 403.906 138.805C403.589 138.935 403.466 140.199 403.66 140.812C404.628 143.889 405.577 146.99 406.827 149.962C410.401 158.505 411.932 167.464 412.724 176.623C413.182 182.041 413.815 187.453 414.59 192.835C415.013 195.86 416.156 198.793 416.49 201.821C416.825 204.927 416.702 208.104 416.542 211.238C416.472 212.675 416.684 213.627 418.04 214.292C421.648 216.062 425.202 217.919 428.792 219.716C430.482 220.561 432.208 221.352 433.915 222.159C435.236 222.788 436.731 224.117 437.875 223.873C440.039 223.417 442.029 222.06 444.071 221.055C444.264 220.963 444.546 220.688 444.529 220.568C443.859 218.055 446.095 217.808 447.414 217.029C450.671 215.119 454.015 213.395 457.587 211.451C457.553 210.991 457.482 210.191 457.394 208.9C456.567 209.934 456.074 210.568 455.335 211.515C455.036 209.936 454.56 208.66 454.614 207.407C454.948 199.072 455.283 190.733 455.898 182.415C456.215 178.026 458.89 174.847 462.498 172.551C464.787 171.096 469.961 171.874 471.88 173.81C473.041 174.987 474.186 176.208 475.136 177.55C475.857 178.58 476.508 178.691 477.688 178.359C485.573 176.131 493.318 175.389 500.216 181.235C500.375 181.38 500.621 181.445 500.885 181.577C502.593 180.081 504.264 178.542 506.006 177.095C508.102 175.347 513.54 175.102 515.74 176.773C519.314 179.473 521.725 183.053 521.549 187.615C521.408 190.906 521.219 194.197 521.003 197.485C516.462 200.72 511.98 204.981 507.784 210.319L507.714 210.007C507.538 209.915 507.38 209.821 507.204 209.728C506.923 210.378 506.623 211.029 506.307 211.743C504.458 209.679 504.493 208.009 505.391 206.08C508.013 200.476 508.013 194.472 507.803 188.463C507.714 186.103 505.55 184.795 503.015 185.617C504.846 192.679 502.364 199.118 499.777 205.475C498.949 207.524 497.559 209.438 496.098 211.125C493.44 214.165 493.915 217.248 497.419 219.315C498.46 219.93 499.51 220.544 500.548 221.177C490.62 238.68 483.614 263.787 483.678 297.273C481.352 298.517 479.239 301.762 477.882 304.437C478.916 299.092 484.278 282.618 476.576 279.07C472.526 277.205 466.677 279.272 464.633 284.939C460.509 269.805 447.266 291.258 446.38 294.447C446.462 290.321 445.525 286.863 443.962 284.106C443.98 282.827 443.785 281.543 443.279 280.24C442.856 279.14 442.856 278.27 444.071 277.7C444.316 277.588 444.633 277.186 444.599 276.974C444 273.545 447.027 271.25 447.273 267.979C447.52 264.795 448.611 261.67 449.404 258.536C450.759 253.191 452.009 247.811 453.61 242.539C454.56 239.408 456.074 236.437 457.412 233.433C458.062 231.955 458.925 230.566 459.259 228.777C457.957 229.817 456.744 230.977 455.317 231.843C454.719 232.213 453.452 232.318 452.994 231.933C451.955 231.057 451.198 231.261 450.265 231.89C448.259 233.269 446.252 234.677 444.194 236.004C440.868 238.156 437.699 238.689 434.267 235.826C427.737 230.363 421.031 225.11 414.343 219.846C413.569 219.239 412.442 219.057 411.439 218.785C409.275 218.196 407.056 217.737 404.927 217.067C404.54 216.948 404.188 216.083 404.17 215.553C404.064 212.016 403.712 208.449 405.331 205.091C408.13 199.272 407.672 193.93 404.909 187.843C398.995 174.723 394.085 161.144 388.77 147.743C388.346 146.663 388.083 145.519 387.713 144.264C386.481 144.485 385.408 144.676 383.964 144.935C382.768 140.425 381.553 135.932 380.356 131.439C380.039 131.483 379.74 131.525 379.441 131.569C380.954 153.241 382.468 174.913 383.982 196.677C383.365 196.901 382.962 197.1 382.521 197.201C378.561 198.142 378.508 198.138 378.578 202.297C378.823 214.855 379.068 227.411 379.378 239.968C368.877 246.54 356.747 263.96 355.241 299.078C355.231 298.137 355.233 297.195 355.258 296.256C355.434 290.238 353.955 284.118 357.105 278.095C352.811 277.42 353.216 274.314 353.04 271.378C352.354 260.988 351.474 250.611 350.892 240.215C350.717 237.03 349.027 235.069 346.774 232.804C346.668 233.852 346.564 234.527 346.545 235.205C346.493 248.145 346.087 261.096 346.51 274.021C346.903 285.92 347.49 297.821 348.337 309.699L343.851 308.894C353.586 270.483 339.035 257.413 320.088 257.485C320.047 256.78 320.006 256.075 319.969 255.369C319.089 238.1 317.064 220.957 314.46 203.876C314.019 200.981 314.353 197.868 311.644 195.635C311.115 195.208 311.397 193.537 311.626 192.516C313.562 184.072 315.462 175.614 317.627 167.227C318.702 163.032 319.177 158.904 318.648 154.599C318.384 152.429 318.595 150.198 318.595 147.994C318.367 147.971 318.155 147.947 317.927 147.925C317.733 149.292 317.47 150.657 317.347 152.031C316.255 164.225 312.558 175.782 308.704 187.298C306.803 192.961 304.708 198.555 302.843 204.233C302.333 205.838 302.21 207.625 302.192 209.33C302.157 211.851 302.667 214.411 302.386 216.89C301.946 220.812 301.083 219.892 300.308 223.771C299.676 226.907 296.895 228.451 294.554 229.586C292.829 230.416 290.135 229.588 288.023 228.982C287.389 228.801 286.862 226.811 287.02 225.759C287.119 225.063 287.212 224.518 287.02 224.131C287.144 223.797 286.457 225.399 287.392 223.189C287.44 223.077 287.509 222.898 287.594 222.664C286.021 220.695 288.101 219.766 288.185 216.816C288.261 214.116 287.747 213.421 286.992 211.276C285.21 206.209 287.477 204.806 286.332 201.072C286.237 201.03 286.064 200.924 286.024 201.019L285.151 200.822C284.093 200.369 285.154 201.655 284.124 199.855C277.997 189.142 272.325 177.781 267.734 166.291C266.9 164.204 266.417 152.773 266.007 149.4C264.473 154.535 259.403 162.177 262.347 167.5C264.791 171.921 266.841 177.991 268.767 182.806C276.038 200.981 275.209 201.961 271.412 221.549C268.891 234.554 264.887 245.849 262.37 258.759C261.814 261.614 264.084 263.208 261.169 276.997C259.79 283.521 258.153 289.534 256.743 296.149C256.621 296.721 256.564 297.597 256.559 298.706C255.999 298.817 255.445 298.966 254.9 299.156C257.119 293.037 258.356 287.181 254.128 281.802L254.046 281.869C248.239 276.362 242.529 278.777 237.402 284.371C237.361 283.062 237.27 281.694 237.076 280.215C236.852 278.501 236.688 279.492 236.632 277.816C236.584 276.323 236.924 276.63 236.878 275.507C236.797 273.531 235.563 273.909 235.091 272.031C234.634 270.216 236.12 271.122 234.455 263.833C233.738 260.698 233.204 257.893 232.326 254.853C229.183 243.974 226.182 230.743 223.749 219.504C220.888 206.289 222.229 193.421 226.846 181.601L231.667 170.199C234.142 163.958 233.486 163.244 231.302 157.348C230.45 155.051 229.343 151.261 228.429 149.333L226.428 165.546C226.24 167.529 227.073 167.292 226.973 169.145C226.883 170.801 225.861 170.953 225.469 172.114C225.355 172.454 224.606 177.985 224.237 179.457C222.964 184.523 221.467 188.255 219.715 192.975C218.919 195.12 217.969 197.189 217.207 199.257C215.67 203.429 217.36 203.956 212.532 202.869C211.734 207.364 213.567 209.583 213.375 213.521C213.295 215.144 212.575 217.177 212.289 218.798C211.879 221.133 212.2 222.887 211.952 224.96C208.061 224.461 209.75 218.386 208.91 214.815C206.613 215.455 204.108 217.601 203.031 219.112C203.782 220.473 203.997 222.396 204.202 224.2C202.102 225.283 204.113 223.935 202.524 224.2L202.201 227.9C200.024 227.222 201.424 227.724 200.15 225.982C199.402 228.005 198.616 229.414 196.469 229.632C196.401 227.806 198.077 224.128 198.492 221.718C199.111 218.114 197.043 216.32 198.165 213.067C199.579 208.968 205.711 206.456 207.06 201.095C207.851 197.953 205.485 201.789 207.885 193.611C208.029 193.119 208.17 192.627 208.309 192.136C205.818 195.65 203.347 199.177 200.852 202.688C198.853 205.504 195.699 205.665 192.76 205.765C190.221 205.849 189.614 206.913 189.514 209.17C189.287 214.276 189.58 213.264 184.894 214.028C183.027 214.333 181.157 214.703 179.276 214.818C177.609 214.92 177.281 215.646 177.252 217.207C176.99 231.071 178.372 244.743 181.713 258.215C182.262 260.426 182.423 262.736 182.951 264.955C183.319 266.496 182.881 267.383 181.412 267.795C179.771 268.257 179.663 269.215 179.868 270.822C180.187 273.342 179.854 275.937 180.027 278.488C180.181 280.749 180.305 283.105 181.032 285.213C183.659 292.818 183.064 300.618 182.904 308.413C182.889 309.125 182.875 309.837 182.866 310.548C176.165 315.939 169.089 325.501 169.089 325.501C167.401 316.35 183.854 227.091 146.228 308.961C145.93 298.09 144.133 290.086 141.243 285.582C140.749 283.791 140.289 281.998 139.974 280.183C139.895 279.718 139.655 279.277 139.613 278.814C139.364 276.035 138.183 274.324 135.079 274.459C133.636 274.521 133.322 273.575 133.461 272.24C133.967 267.377 134.331 262.5 134.859 257.638C135.223 254.279 134.749 251.285 133.268 248.083C131.973 245.286 132.12 241.802 131.742 238.607C131.279 234.708 130.934 230.792 130.483 226.346C128.326 228.679 126.396 230.783 124.447 232.868C122.619 234.822 122.609 234.812 119.724 233.765C119.148 235.576 118.154 237.354 118.086 239.167C117.885 244.523 117.665 249.935 118.222 255.244C118.537 258.23 120.335 261.073 121.539 263.948C121.931 264.885 122.733 265.669 123.026 266.624C123.283 267.458 123.091 268.43 123.098 269.341C122.34 268.843 121.43 268.475 120.859 267.814C120.134 266.975 119.681 265.898 119.114 264.92C118.867 264.926 118.622 264.928 118.378 264.932C118.068 265.985 117.566 267.023 117.483 268.091C117.248 271.155 117.242 274.236 117.004 277.298C116.949 278.025 116.338 278.712 115.983 279.419C115.67 278.733 115.173 278.071 115.084 277.361C114.85 275.438 114.793 273.493 114.637 271.17C112.521 273.763 113.903 277.607 110.234 279.099C110.781 275.685 111.328 272.272 111.876 268.858C111.696 268.785 111.516 268.711 111.339 268.639C109.944 271.1 108.547 273.563 107.154 276.023C106.812 275.864 106.471 275.707 106.129 275.549C105.59 272.369 108.256 270.024 109.074 266.747C107.332 268.171 105.922 269.321 104.514 270.471C104.287 270.298 104.061 270.124 103.834 269.95C104.434 268.966 104.914 267.877 105.652 267.013C109.697 262.288 111.311 256.809 110.77 250.687C110.293 245.267 109.576 239.867 109.181 234.442C109.036 232.443 109.496 230.4 109.703 228.38C109.741 227.994 110.093 227.472 109.946 227.26C108.285 224.856 110.357 223.523 111.501 222.06C115.092 217.459 118.824 212.97 122.458 208.399C124.71 205.564 127.375 203.411 130.817 202.065C135.125 200.38 139.29 198.337 143.812 196.318C142.044 193.622 142.037 190.327 138.719 189.016C137.147 188.394 136.488 186.109 134.28 186.339C134.105 186.356 133.78 185.646 133.648 185.234C132.017 180.207 132.19 175.104 133.315 170.042C134.148 166.288 140.782 162.066 144.453 161.514C149.395 160.772 153.711 162.571 158.243 163.592C161.605 164.35 165.002 169.426 164.825 172.932C164.716 175.01 165.033 177.109 165.024 179.197C165.018 181.314 164.335 183.008 162.448 184.406C160.67 185.72 159.106 187.495 157.891 189.357C156.707 191.174 157.809 192.964 159.998 193.134C168.566 193.8 177.141 194.356 185.707 195.045C187.993 195.229 190.247 195.901 192.532 196.033C193.504 196.09 194.805 195.606 195.477 194.906C199.682 190.537 203.774 186.059 207.828 181.548C208.28 181.044 210.968 177.256 211.041 176.508C211.31 175.147 212.679 173.736 213.912 172.501L215.261 165.043C215.168 162.859 214.449 163.26 215.407 160.929C218.077 154.431 217.369 139.008 217.369 131.689C217.369 118.493 216.62 121.171 228.333 117.385C230.794 116.589 236.783 112.757 239.181 115.545C240.871 114.996 241.907 114.543 242.61 112.701C240.263 113.076 239.181 113.214 237.142 112.193C232.299 109.769 230.576 112.936 221.53 109.293L217.769 107.044C216.467 105.973 215.293 105.796 214.203 104.136C212.998 102.3 213.739 101.37 212.721 99.5837C208.089 91.4572 218.723 92.8087 221.265 91.8643C228.267 89.2651 217.488 84.7076 222.357 72.5641C223.542 69.6085 225.791 67.4304 228.657 66.3913C231.504 65.3597 231.848 64.9869 232.042 64.2356C190.638 77.032 153.597 99.7656 123.71 129.653C89.6103 163.752 64.824 207.163 53.4832 255.743C49.5348 257.113 45.5648 258.736 41.6476 260.597C52.5977 207.145 79.1224 159.368 116.274 122.217C165.826 72.6647 234.281 42.0156 309.893 42.0156C312.493 42.0156 315.084 42.0559 317.667 42.1275C317.859 40.2244 318.399 38.3923 319.792 36.7479C325.441 30.0399 332.824 28.7555 340.824 29.5889L344.184 2.58038L349.827 3.28265L356.491 21.6295C357.053 23.1329 357.65 24.9181 358.293 26.9688C359.049 29.4092 359.515 30.8881 359.686 31.3891L360.341 31.4703C360.853 25.5845 361.161 22.2027 361.269 21.3327L363.306 4.95906L366.688 5.38012ZM385.851 9.65665L395.083 12.2625C399.895 13.6207 403.117 16.0164 404.756 19.4513C406.247 22.5835 406.347 26.4365 405.052 31.0253C403.577 36.2492 400.938 39.7444 397.136 41.52C393.974 42.9892 390.291 43.13 386.086 41.9425L377.428 39.4992L385.851 9.65665ZM388.556 13.5239L381.756 37.6162L386.783 39.0355C390.381 40.0508 393.423 39.7801 395.92 38.2335C398.414 36.6785 400.214 33.9444 401.322 30.0168C403.568 22.0602 401.095 17.063 393.894 15.0302L388.556 13.5239ZM463.784 40.6299L449.716 68.2631L446.454 66.6023L453.134 53.4793L439.549 46.5633L432.868 59.6864L429.613 58.0293L443.681 30.3955L446.936 32.0532L440.962 43.7889L454.547 50.7049L460.521 38.9692L463.784 40.6299ZM489.979 57.3555L480.109 88.3944L476.996 86.1775L480.262 76.4164L471.26 70.0065L463.007 76.2165L460.094 74.1421L486.196 54.6631L489.979 57.3555ZM481.271 73.6225L483.769 66.1476C484.396 64.2273 485.34 61.6453 486.589 58.4028L486.069 58.0331C483.807 60.0024 481.701 61.7392 479.743 63.23L473.49 68.0827L481.271 73.6225ZM527.25 87.0593L506.933 110.485L503.41 107.429L508.369 86.8901C508.44 86.5719 509.303 83.3285 510.957 77.1617L510.475 76.7436C510.007 77.284 508.871 78.6466 507.063 80.8292C505.891 82.244 504.891 83.4284 504.065 84.3825L492.376 97.8588L489.801 95.6264L510.118 72.201L514.414 75.9267L509.731 94.8764C509.36 96.4381 508.863 98.2532 508.254 100.314C507.523 102.763 507.087 104.25 506.949 104.762L507.447 105.194C511.151 100.591 513.291 97.9535 513.865 97.2916L524.675 84.8268L527.25 87.0593ZM540.744 100.727L547.009 107.991C550.274 111.777 551.641 115.553 551.114 119.322C550.632 122.757 548.591 126.026 544.98 129.141C540.869 132.686 536.739 134.146 532.589 133.531C529.141 133.013 525.991 131.1 523.138 127.791L517.262 120.979L540.744 100.727ZM540.869 105.444L521.911 121.794L525.322 125.75C527.763 128.58 530.451 130.031 533.387 130.119C536.325 130.197 539.334 128.908 542.424 126.243C548.685 120.844 549.377 115.311 544.491 109.645L540.869 105.444ZM290.567 572.036C291.155 573.128 291.764 574.703 292.394 576.76C293.024 578.817 293.528 581.294 293.906 584.192C294.284 587.089 294.388 589.755 294.22 592.191L293.465 597.355C292.289 604.073 289.056 609.658 283.765 614.109C278.475 618.56 272.345 620.785 265.374 620.785C262.52 620.785 259.789 620.392 257.18 619.608C271.134 632.195 289.617 639.858 309.893 639.858C331.635 639.858 351.318 631.046 365.564 616.8C367.377 614.986 369.102 613.085 370.732 611.101L316.516 511.32V620.155H318.658C318.91 620.155 319.036 620.281 319.036 620.533C319.036 620.785 318.91 620.911 318.658 620.911H303.542C303.291 620.911 303.165 620.785 303.165 620.533C303.165 620.281 303.291 620.155 303.542 620.155H305.683V509.431H303.542C303.291 509.431 303.165 509.326 303.165 509.116C303.165 508.907 303.291 508.802 303.542 508.802H318.658C318.91 508.802 319.036 508.907 319.036 509.116C319.036 509.326 318.91 509.431 318.658 509.431H316.516V509.81L365.391 599.874V509.431H363.25C362.998 509.431 362.872 509.326 362.872 509.116C362.872 508.907 362.998 508.802 363.25 508.802H368.718C367.699 507.657 366.647 506.541 365.564 505.458C351.318 491.212 331.635 482.399 309.893 482.399C288.15 482.399 268.467 491.212 254.222 505.458C249.441 510.238 245.273 515.632 241.844 521.509C242.872 520.023 244.059 518.6 245.409 517.241C250.993 511.615 257.691 508.802 265.5 508.802C269.195 508.802 272.764 509.515 276.207 510.942C279.651 512.371 282.716 514.365 285.403 516.926C288.09 519.488 290.189 522.448 291.701 525.807V519.887H292.331V529.712L291.701 527.822C289.686 522.364 286.264 517.955 281.435 514.596C276.606 511.237 271.295 509.557 265.5 509.557C262.309 509.557 259.202 510.082 256.179 511.132C253.156 512.181 250.468 513.672 248.117 515.603C245.766 517.535 243.75 519.802 242.071 522.405C238.795 527.529 237.704 532.986 238.795 538.781C239.047 540.125 239.425 541.217 239.929 542.057C240.601 543.484 241.42 544.786 242.386 545.961C243.351 547.137 244.527 548.187 245.913 549.11C247.298 550.034 248.558 550.811 249.692 551.441C250.825 552.071 252.358 552.742 254.289 553.456C256.221 554.17 257.753 554.695 258.887 555.031C260.021 555.367 261.721 555.871 263.989 556.542C266.76 557.382 268.859 558.033 270.287 558.494C271.715 558.957 273.625 559.671 276.018 560.636C278.412 561.602 280.343 562.547 281.813 563.47C283.282 564.394 284.836 565.612 286.473 567.123C288.111 568.635 289.476 570.273 290.567 572.036ZM255.84 618.37C258.838 619.476 262.016 620.029 265.374 620.029C268.481 620.029 271.441 619.546 274.255 618.581C277.068 617.614 279.63 616.271 281.939 614.549C284.248 612.828 286.243 610.833 287.922 608.566C290.525 604.955 291.974 600.966 292.268 596.599C292.562 592.232 291.659 588.118 289.56 584.254C289.476 584.087 289.392 583.961 289.308 583.877C288.216 582.029 286.894 580.392 285.339 578.964C283.786 577.537 282.274 576.361 280.805 575.437C279.335 574.513 277.425 573.569 275.074 572.603C272.722 571.637 270.833 570.923 269.405 570.461C267.977 570 265.92 569.391 263.233 568.635C256.515 566.619 251.686 564.898 248.747 563.47C243.96 561.035 240.601 557.802 238.669 553.771C237.158 550.748 236.57 546.045 236.906 539.663C236.906 538.655 236.906 537.899 236.906 537.396C236.945 533.839 237.553 530.509 238.732 527.405C233.879 537.627 231.163 549.061 231.163 561.129C231.163 582.871 239.975 602.554 254.222 616.8C254.753 617.331 255.293 617.855 255.84 618.37ZM376.35 518.9V603.358C384.12 591.155 388.622 576.668 388.622 561.129C388.622 545.59 384.12 531.102 376.35 518.9ZM99.4669 348.682C99.9328 348.742 100.393 348.808 100.846 348.881C109.099 350.216 117.43 353.286 111.788 362.698C109.869 365.896 108.451 366.706 105.505 368.547C110.171 360.388 109.304 352.113 96.6612 352.113C78.7385 352.113 65.3204 358.37 48.7633 362.8C19.6968 370.584 0 354.327 0 324.548C0 322.172 0.205072 319.687 0.615072 317.098C3.78521 297.068 16.1867 274.647 38.9037 274.647C41.7975 271.477 44.9297 268.619 48.2967 266.079C58.7905 258.158 97.7107 242.049 97.7107 265.639C97.7107 267.994 94.5673 268.366 94.5673 266.161C94.5673 245.687 59.0597 260.447 50.0335 267.718C47.2628 269.95 44.7023 272.431 42.3528 275.157C44.1365 275.606 45.7392 276.326 47.1569 277.315C48.8572 278.502 50.2884 280.073 51.4453 282.025C57.3072 291.918 55.1455 306.13 49.2792 315.49C45.9383 320.821 41.2727 324.552 34.7488 324.552C25.8389 324.552 24.2035 315.118 24.4272 308.09C24.4256 302.475 25.5535 296.969 27.8076 291.576C29.8955 286.582 32.9509 281.685 36.9732 276.886C33.3996 277.037 29.4684 278.142 26.6671 280.373C15.5151 289.253 12.2867 310.037 12.2867 323.372C12.2867 325.939 12.394 328.369 12.6079 330.66C14.8747 354.944 25.5863 361.7 48.9221 357.584C62.5676 355.177 80.0989 348.339 93.3568 348.316L93.2345 348.253C87.5224 345.417 90.5824 338.738 92.1895 334.191C96.1424 323.002 99.2851 315.569 104.321 304.004C105.861 300.226 105.114 297.808 102.129 301.197C100.305 303.809 96.9257 309.095 91.9979 317.049L88.8747 322.646C88.6629 323.027 88.4713 323.388 88.3021 323.727C85.2735 329.756 83.1737 328.367 82.8264 324.502C82.6169 322.171 86.2411 294.51 83.9915 294.51C81.1573 294.51 74.9675 307.351 74.6737 308.075C72.4779 313.665 69.8659 315.585 68.0173 322.441L67.9837 322.503C65.6559 326.904 59.378 325.432 62.3693 320.487C62.8643 319.663 63.6037 318.693 64.5795 317.581C64.9916 315.823 65.3025 314.05 65.5104 312.261C65.7244 310.42 65.8317 308.549 65.8317 306.653C65.8317 305.738 65.7169 304.773 65.4903 303.76C65.3711 303.231 65.2205 302.684 65.0379 302.122C62.288 309.685 60.6153 317.303 53.3476 321.217L54.4188 319.268C58.3769 312.068 60.1428 304.842 63.3033 297.473C61.8117 292.574 63.4516 280.186 67.7139 278.189C71.4417 276.438 74.9832 277.109 74.9832 281.705C69.362 298.827 71.4357 302.322 70.6396 309.088C72.8937 305.535 72.5271 305.773 74.2273 301.351C75.502 297.568 76.7885 294.401 78.0833 291.857C79.2275 289.605 88.5139 275.482 91.2853 285.183L91.3107 285.271V286.668C91.3107 294.867 90.7076 304.048 89.6051 312.194C89.4217 313.548 89.2287 314.77 89.0252 315.86C91.5513 310.998 95.6295 303.037 99.0673 298.98C100.435 297.366 104.914 293.403 107.533 295.458C112.867 299.706 108.591 313.809 106.242 319.209C103.683 325.097 99.2031 333.145 98.4889 339.186C98.4225 339.751 98.3823 340.196 98.3689 340.519C113.056 329.957 117.388 302.826 129.781 290.433C132.205 288.009 134.489 286.795 136.63 286.795C144.558 286.795 141.633 296.462 141.234 300.897C141.041 303.035 140.945 304.955 140.945 306.653C140.945 310.859 141.262 313.997 141.894 316.064C142.452 317.885 143.223 318.796 144.206 318.796C146.449 318.796 148.841 315.965 151.379 310.305C152.698 307.364 153.687 304.912 154.344 302.951C154.984 301.042 155.304 299.619 155.304 298.685C155.304 290.612 163.68 278.312 168.347 286.273C169.149 287.64 169.55 289.645 169.55 292.285C169.55 305.459 158.902 313.708 165.568 327.928C172.437 342.595 186.21 305.636 190.577 313.329C190.671 314.503 188.983 325.56 189.061 326.381L189.135 327.176C191.828 320.977 204.939 283.529 211.996 283.529C212.371 283.529 212.69 283.574 212.953 283.661C217.064 285.046 215.293 296.171 215.133 298.724C215.092 299.384 211.732 329.899 214.217 329.899C217.996 329.899 232.699 303.776 233.838 301.936C235.626 299.001 240.835 287.765 241.86 286.704C243.231 285.285 244.946 284.575 247.002 284.575C250.622 284.575 252.19 286.729 251.705 291.036C251.412 294.483 249.304 298.044 248.633 302.529C247.614 309.574 246.885 315.886 247.037 323.017C247.057 323.944 247.087 324.898 247.126 325.876C250.942 330.599 260.093 326.554 260.097 321.513C258.862 321.416 257.765 321.138 256.81 320.681C252.361 318.552 251.028 312.468 252.777 308.169C253.143 307.28 253.596 306.503 254.137 305.846C254.706 305.152 255.394 304.631 256.196 304.286C261.281 302.097 269.265 306.532 269.99 312.435C270.038 312.822 270.061 313.22 270.059 313.629V313.632V313.637V313.649L270.057 313.862V313.87L270.055 313.901V313.915L270.055 313.938L270.053 313.964V313.977L270.052 314.015C270.006 314.908 269.743 317.265 268.317 320.153C267.45 321.911 266.534 323.105 265.688 323.974C264.891 324.668 264.089 325.335 263.281 325.977C258.5 329.773 254.518 332.391 248.179 332.391L248.143 332.388C245.728 332.252 243.538 331.601 241.575 330.437C239.62 329.278 237.896 327.612 236.405 325.445L236.312 325.307C235.417 317.435 236.47 311.065 237.796 303.354C237.468 303.894 237.105 304.462 236.709 305.058C229.555 315.811 224.453 326.306 217.637 336.407C215.27 339.961 213.208 342.638 211.454 344.435C209.605 346.331 208.043 347.281 206.772 347.281C195.86 347.281 209.773 302.239 208.085 298.397C204.492 301.975 199.532 318.851 195.669 326.416C194.674 328.364 193.664 330.427 192.643 332.599C188.134 342.191 181.248 339.551 178.547 336.221C177.789 337.362 178.782 328.419 177.976 329.512C175.195 333.277 172.883 336.109 171.045 338.003C165.179 344.042 160.298 339.996 157.795 333.031C155.961 327.928 155.044 320.31 155.044 310.182L155.053 308.613C154.452 309.94 153.777 311.391 153.028 312.964C151.648 315.864 149.99 319.238 148.057 323.081C146.115 326.944 144.245 329.853 142.453 331.802C140.57 333.848 138.738 334.873 136.958 334.873C135.067 334.873 133.669 333.663 132.768 331.244C131.945 329.033 131.533 325.755 131.533 321.414C131.533 320.008 131.66 318.117 131.913 315.745C132.166 313.376 132.543 310.551 133.042 307.275C133.551 303.928 133.927 301.325 134.168 299.47C134.323 298.275 135.174 294.25 132.843 294.25C131.076 294.25 112.656 333.555 104.484 343.449C103.644 344.463 102.937 345.279 102.367 345.894L99.4669 348.682ZM48.9333 282.739C47.9375 280.934 46.7403 279.542 45.3456 278.568C44.0508 277.664 42.5735 277.109 40.9149 276.908C37.2393 281.553 34.4737 286.333 32.6192 291.243C30.7333 296.237 29.7896 301.375 29.7896 306.653C29.7896 322.963 40.5317 325.879 47.6317 313.448C52.5291 304.868 53.8291 291.622 48.9333 282.739ZM389.51 241.867C389.51 242.264 389.481 242.577 389.424 242.807C389.297 243.315 389.02 243.569 388.592 243.569C371.779 243.569 373.053 296.907 373.053 309.919C373.053 312.937 373.118 315.911 373.247 318.837C373.373 321.721 373.561 324.571 373.809 327.383C375.762 329.352 377.516 331.415 379.065 333.57C379.864 334.679 380.587 335.812 381.229 336.965C381.878 338.129 382.446 339.308 382.931 340.497C384.522 344.447 388.1 352.728 384.228 356.188C383.483 356.855 380.055 359.035 379.187 359.035C377.696 359.035 376.078 358.129 374.339 356.318C372.688 354.601 370.892 352.042 368.952 348.646L368.946 348.636C365.293 342.025 362.757 333.745 361.343 323.801C359.596 322.923 357.778 322.135 355.891 321.442C349.737 319.182 343.016 318.034 336.493 317.539C334.742 327.399 333.867 337.269 333.867 347.144V349.693L332.634 347.46C328.586 340.125 330.906 325.594 331.704 317.368H330.597C321.663 317.368 293.506 319.077 293.506 332.646C293.506 336.927 298.763 340.488 290.367 340.488C288.733 340.488 287.489 339.997 286.639 339.018C285.813 338.067 285.399 336.682 285.399 334.867C285.399 332.962 286.39 330.879 288.372 328.622C297.941 317.715 318.655 314.371 332.247 313.855L332.426 312.516C332.519 311.775 332.607 311.016 332.688 310.243C333.811 299.542 340.279 281.949 328.696 275.086L328.688 275.081C317.449 268.214 298.865 270.318 287.689 276.724C285.524 277.965 283.52 279.423 281.753 281.19C276.314 286.629 273.294 295.275 281.123 300.356C290.187 306.24 310.417 303.798 316.466 294.732C320.939 288.008 316.877 283.353 309.109 284.12C307.656 284.29 306.211 284.509 304.763 284.717L307.11 283.122C314.6 278.039 321.98 281.147 321.98 290.326C321.98 304.032 294.828 308.787 283.837 305.965C281.337 305.324 279.204 304.357 277.44 303.068C268.012 296.179 272.326 284.06 279.593 277.052C291.181 265.878 313.039 260.076 328.757 263.86C331.81 264.594 334.54 265.699 336.947 267.169C339.394 268.664 341.236 270.52 342.467 272.733C343.698 274.945 344.316 277.502 344.316 280.399C344.316 281.641 344.215 282.99 344.014 284.442C342.753 293.559 339.317 304.574 337.29 313.834C346.158 313.882 353.954 315.439 360.674 318.505C360.59 317.39 360.523 316.234 360.473 315.038C360.407 313.434 360.373 311.814 360.373 310.18C360.373 291.055 362.739 248.695 384.464 239.808C385.997 239.291 389.51 239.54 389.51 241.867ZM374.456 333.921C375.235 340.329 376.183 345.203 377.294 348.538C378.328 351.641 379.445 353.337 380.643 353.626C383.789 347.202 378.54 338.551 374.456 333.921ZM415.431 294.561L416.548 293.463L417.03 293.684C416.443 295.247 415.58 297.731 415.259 299.23C413.994 305.117 413.654 314.397 415.09 320.279C415.332 321.269 415.609 322.002 415.918 322.474C418.383 326.277 429.503 297.185 430.034 295.719C430.224 295.194 430.426 294.679 430.641 294.164C428.464 293.535 426.216 293.092 425.576 290.605C425.473 290.208 425.422 289.766 425.422 289.281C425.422 286.512 429.768 282.16 432.207 281.044C437.056 278.819 439.274 282.768 440.609 286.548C441.618 289.414 440.983 296.606 440.869 299.779C440.601 307.219 440.295 319.282 443.322 316.733C445.611 314.795 448.997 305.022 449.749 302.668L449.764 302.622C450.45 300.907 451.074 299.015 451.633 296.949C453.248 290.98 451.903 288.729 456.659 286.053C457.763 285.778 459.652 285.324 459.652 287.191C459.652 288.552 459.701 291.165 459.37 292.445C458.203 297.115 453.76 329.441 462.666 308.23C464.111 304.778 469.63 285.901 469.899 285.602C470.667 284.743 475.457 281.562 475.457 284.97C475.457 286.162 475.478 289.236 475.167 290.252C472.421 299.406 471.827 309.397 473.003 318.852C473.162 320.13 473.46 324.733 475.519 322.256C478.295 318.588 483.136 301.816 486.424 301.816C487.064 301.816 488.164 302.738 488.683 303.167C489.563 274.857 494.956 234.239 514.462 211.901C521.099 204.301 526.036 200.591 536.008 199.465C541.141 198.886 555.786 199.543 555.786 206.996C518.176 192.744 494.004 263.252 494.004 296.073V306.522C494.004 307.345 494.069 307.981 494.196 308.427L496.4 311.109L499.655 302.503C500.972 298.843 505.119 289.408 508.357 287.205C510.166 285.972 512.448 286.311 513.256 288.425C514.758 292.301 517.843 298.679 516.953 301.973C515.903 305.866 512.357 308.927 509.616 311.687C507.297 314.135 505.298 316.528 503.096 318.972L520.644 341.13C531.1 354.797 540.674 365.045 549.362 371.87C585.571 400.311 614.739 352.496 571.956 352.505C609.408 340.088 604.111 394.786 557.13 385.946C554.375 385.429 551.544 384.652 548.64 383.618C531.315 377.447 523.595 360.939 514.072 346.3C512.477 343.583 510.064 339.793 506.841 334.935C503.886 330.484 500.26 325.151 495.963 318.942C495.963 321.162 494.234 338.59 491.259 340.573C487.564 343.025 482.847 336.775 483.832 333.315C484.198 332.034 484.643 330.391 485.11 328.587C486.511 323.17 488.112 316.303 488.384 313.449C488.467 312.571 488.509 311.829 488.509 311.225C488.509 297.676 479.811 322.252 475.846 327.491C468.234 337.535 465.916 321.598 466.111 315.566C466.155 314.179 466.221 312.826 466.307 311.51L466.472 309.316C465.985 310.619 465.522 311.798 465.086 312.848C464.612 313.992 464.161 315.019 463.735 315.926C457.281 329.695 449.437 329.017 450.47 313.777C450.511 313.151 450.568 312.518 450.639 311.878C449.134 315.784 447.887 318.632 446.9 320.423C445.599 322.796 444.247 324.619 442.845 325.885C441.386 327.199 439.865 327.93 438.285 328.074C437.093 328.181 436.101 327.741 435.312 326.752C434.604 325.863 434.075 324.515 433.728 322.711C433.397 320.987 433.148 318.814 432.983 316.196C432.817 313.583 432.735 310.531 432.735 307.045V301.785L430.48 307.02C430.001 308.414 429.531 309.676 429.071 310.802C427.84 313.821 416.003 334.74 411.58 334.74C402.275 334.74 405.108 314.029 406.236 308.61C406.607 306.824 406.979 305.172 407.346 303.653H406.04C405.34 305.677 404.604 307.542 403.836 309.242C401.419 314.594 396.494 322.15 391.194 325.058C381.294 330.487 376.808 317.929 383.319 309.422C392.818 297.011 382.304 318.825 391.869 316.531C396.288 315.477 400.356 306.847 401.822 302.958C397.637 302.005 390.88 299.124 389.284 294.606C386.811 288.078 389.456 280.492 394.144 275.634C398.587 271.027 407.432 266.263 409.48 275.822C410.542 282.462 409.226 289.512 408.034 296.063C408.494 296.136 408.947 296.195 409.389 296.237C411.334 296.424 414.06 295.9 415.431 294.561ZM397.921 291.506C398.385 292.137 398.987 292.694 399.725 293.173C401.15 294.097 402.7 294.785 404.328 295.265C415.063 254.921 389.889 280.557 397.921 291.506ZM499.023 314.234C499.375 314.608 499.604 314.954 499.89 315.38C516.473 296.912 512.774 277.135 501.179 308.544C500.491 310.414 499.685 312.384 499.023 314.234ZM529.078 290.433C541.491 278.02 541.149 294.043 540.531 300.897C540.339 303.035 540.242 304.955 540.242 306.653C540.242 310.859 540.559 313.997 541.191 316.064C543.624 324.01 549.471 312.994 550.677 310.305C553.536 303.928 555.207 291.066 557.825 287.945C560.193 285.12 564.897 281.587 567.644 286.273C570.827 291.702 567.343 302.255 564.865 307.458C562.199 312.954 562.4 322.67 564.865 327.928C565.471 329.222 566.191 330.187 567.021 330.818C573.686 335.895 607.288 272.939 584.761 317.332C581.21 324.327 575.82 332.356 570.341 338.001C568.394 340.006 566.892 341.01 565.839 341.01C561.92 341.01 559.003 338.349 557.092 333.03C555.258 327.926 554.34 320.308 554.34 310.18L554.35 308.612C551.191 315.579 546.583 326.545 541.749 331.801C539.866 333.847 538.034 334.871 536.254 334.871C534.363 334.871 532.965 333.661 532.065 331.243C528.31 321.163 536.897 294.249 532.139 294.249C526.895 294.249 515.88 321.363 513.718 326.479C513.718 313.917 520.138 299.373 529.078 290.433ZM565.125 216.481C575.747 243.742 582.122 273.124 583.448 303.815C580.705 307.477 577.301 312.571 573.17 319.32C573.185 318.16 573.193 316.998 573.193 315.836C573.193 279.712 565.917 245.29 552.753 213.95C556.665 214.062 560.79 214.867 565.125 216.481ZM583.516 326.291C583.221 334.15 582.591 341.923 581.647 349.599C578.485 349.491 574.932 349.648 570.979 350.107C571.266 347.901 571.525 345.689 571.757 343.467C575.928 339.297 580.035 332.978 583.516 326.291ZM579.766 362.388C579.186 365.768 578.546 369.127 577.845 372.464C574.864 372.886 571.205 372.822 567.178 372.055C568.066 367.967 568.86 363.843 569.556 359.687C573.904 360.445 577.271 361.374 579.766 362.388ZM573.079 391.641C560.102 436.78 535.828 477.138 503.511 509.455C474.171 538.795 438.201 561.503 398.044 575.15C395.041 594.179 386.024 611.211 373 624.236C356.849 640.387 334.537 650.377 309.893 650.377C285.249 650.377 262.936 640.387 246.785 624.236C233.761 611.211 224.744 594.179 221.741 575.15C181.584 561.503 145.614 538.795 116.274 509.455C78.462 471.643 51.6592 422.822 41.0804 368.216C44.4981 367.641 47.9493 366.899 51.3775 366.056C61.5292 418.626 87.3167 465.625 123.71 502.018C150.835 529.144 183.855 550.376 220.68 563.635C220.657 562.802 220.644 561.967 220.644 561.129C220.644 555.952 221.087 550.879 221.933 545.943C143.092 515.788 83.7164 446.292 67.822 361.466C93.3508 353.859 111.071 348.225 90.5787 384.066C100.133 378.095 136.975 355.994 109.43 345.651C115.277 337.887 121.703 325.176 126.628 315.838L126.458 326.447C128.736 344.569 143.709 341.634 151.172 328.401C153.604 341.271 164.116 352.9 175.64 340.779C183.324 348.058 193.317 343.485 197.412 334.767C194.761 376.867 226.019 333.234 231.178 324.31C235.691 345.745 262.83 337.391 272.038 324.352L271.994 324.321C273.558 321.753 274.725 318.817 275.125 315.836H298.099C285.353 320.914 275.121 328.967 281.486 340.731C292.357 360.827 294.626 324.389 325.848 322.755C323.791 342.196 330.013 353.574 339.127 370.083C339.127 354.434 338.584 338.77 340.879 323.267C346.244 324.027 351.616 325.193 356.587 327.374C364.984 377.281 407.746 367.336 383.746 331.243C389.782 332.877 395.714 329.113 399.799 324.769C401.728 351.129 420.612 335.639 428.411 322.797C430.15 332.528 438.846 336.542 446.795 329.395V329.365L448.214 327.838C452.171 332.709 458.355 331.216 462.404 327.338C463.112 329.691 464.144 331.964 465.903 333.665V333.71C470.129 337.256 475.015 336.207 478.674 332.281C475.09 347.936 495.885 350.76 499.441 333.312L505.916 343.097L505.908 343.101L509.553 348.949C521.342 368.853 533.901 380.559 545.865 386.634C523.908 459.909 468.745 518.829 397.853 545.944C398.699 550.878 399.142 555.952 399.142 561.128C399.142 561.966 399.128 562.802 399.106 563.634C435.931 550.376 468.95 529.143 496.076 502.018C526.433 471.66 549.41 433.922 562.088 391.727C565.917 392.194 569.598 392.132 573.079 391.641ZM38.2523 350.54C37.3861 343.692 36.7733 336.765 36.4223 329.769C39.6604 329.703 43.1697 328.514 46.782 325.914C47.0876 334.025 47.7615 342.043 48.7849 349.95C45.0311 350.397 41.5 350.631 38.2523 350.54ZM510.484 248.959C511.255 253.487 510.559 258.025 508.981 262.586C508.084 265.192 507.291 267.839 506.447 270.462C505.074 274.757 504.106 279.059 504.51 283.673L504.534 283.986C502.807 285.351 501.103 287.423 499.496 290.286C500.393 278.409 504.069 262.897 510.484 248.959ZM524.101 315.836H526.772C526.868 334.484 536.68 351.957 550.49 328.505C551.652 334.614 553.111 339.109 554.78 342.277C554.375 346.071 553.888 349.841 553.313 353.582C549.498 354.584 545.458 355.773 541.133 357.207C532.928 348.546 525.551 338.961 518.139 329.533C518.421 328.866 518.814 327.921 519.017 327.336L519.047 327.348L524.101 315.836ZM552.593 357.985C552.154 360.522 551.676 363.047 551.162 365.558C547.944 363.496 544.736 360.921 541.657 357.749C545.612 357.748 549.246 357.833 552.593 357.985ZM319.965 52.7243C316.623 52.5983 313.265 52.5349 309.893 52.5349C292.361 52.5349 275.232 54.2523 258.66 57.5209C259.563 58.1105 260.4 58.7755 261.15 59.5119C265.166 63.4544 267.603 70.1803 273.142 72.0423C286.406 76.5028 277.86 82.3349 277.391 86.4101C280.599 88.864 285.044 90.2095 286.353 94.9011C289.636 106.673 275.828 106.949 273.604 108.084C270.328 109.755 267.544 110.039 263.509 110.9C261.898 111.243 261.688 111.808 260.108 112.214C257.551 112.869 254.641 112.279 251.947 113.187C252.565 114.747 253.296 114.87 254.713 115.813C256.308 115.067 253.868 113.749 260.646 115.102C264.684 115.907 268.137 118.171 272.131 119.289C275.043 120.104 275.154 120.094 276.513 122.788C278.043 125.824 276.82 132.835 277.024 137.021C277.273 142.123 277.647 146.977 277.654 152.047C277.664 157.741 278.643 155.648 279.299 158.297C279.685 159.859 278.94 159.386 279.556 160.953C280.009 162.106 280.373 161.656 280.951 163.69C283.26 171.801 286.34 179.291 288.752 187.328C289.378 189.415 289.864 191.332 290.511 193.433C292.118 198.644 291.194 195.772 290.457 198.503C291.203 200.889 292.286 202.527 293.185 204.795C295.077 198.051 296.573 191.645 296.067 189.895C296.895 179.133 297.546 168.354 298.601 157.616C299.006 153.505 300.343 149.489 301.206 145.415C301.4 144.444 301.329 143.414 301.364 142.51C301.048 142.32 300.925 142.193 300.784 142.176C295.698 141.509 296.665 141.729 297.229 137.272C297.492 135.325 298.003 133.407 298.495 131.499C300.027 125.495 300.537 119.435 300.327 113.22C300.186 109.006 300.749 104.729 301.382 100.536C302.21 94.9875 305.677 91.1844 310.446 88.5457C316.185 85.3829 321.87 82.1321 327.748 79.3056C331.11 77.6984 332.694 75.7216 331.374 71.7918C328.47 73.0068 327.748 70.7871 326.71 68.6484C325.337 65.8427 323.365 63.3105 322.15 60.4489C321.113 58.0047 320.686 55.3093 319.965 52.7243ZM65.5797 347.186C64.8679 341.599 64.3401 335.955 64.0084 330.258C66.9752 330.197 70.0687 328.716 71.8748 326.166L71.9485 326.21L76.8817 315.836H78.2749C77.6233 324.236 77.4005 338.656 87.1013 332.836C85.8699 336.257 84.3537 340.004 84.5215 343.818C78.0475 344.799 71.6735 346.038 65.5797 347.186ZM218.894 315.836H219.466C219.239 316.257 219.027 316.634 218.832 316.952L218.894 315.836ZM324.409 309.204C324.405 306.068 324.399 302.931 324.386 299.794C324.386 298.752 324.247 297.711 324.087 296.67C329.574 290.144 330.233 282.83 321.464 277.603L321.438 277.168C334.392 281.193 329.091 296.559 327.566 308.872C326.674 308.94 325.607 309.052 324.409 309.204ZM379.562 270.032C379.294 271.698 379.433 273.408 380.039 275.188C381.676 279.992 380.444 284.897 380.356 289.758C380.303 292.833 380.268 295.927 379.899 298.971C379.592 301.487 379.364 304.063 378.889 306.554C378.611 306.953 378.344 307.357 378.09 307.763C378.021 307.565 377.935 307.417 377.831 307.307C378.071 307.326 378.265 307.327 378.288 307.292C373.087 295.405 375.223 281.619 379.562 270.032Z" fill="url(#paint0_linear_96_10)"/>
<defs>
<linearGradient id="paint0_linear_96_10" x1="298.328" y1="0" x2="298.328" y2="650.377" gradientUnits="userSpaceOnUse">
<stop stop-color="#EF780B"/>
<stop offset="0.5" stop-color="#E40540"/>
<stop offset="1" stop-color="#3F2575"/>
</linearGradient>
</defs>
</svg>
